<?xml version="1.0" encoding="iso-8859-1"?>
<!-- Generator: Adobe Illustrator 19.0.0, SVG Export Plug-In . SVG Version: 6.00 Build 0)  -->
<svg version="1.1" id="Capa_1" xmlns="http://www.w3.org/2000/svg" xmlns:xlink="http://www.w3.org/1999/xlink" x="0px" y="0px"
	 viewBox="0 0 512 512" style="enable-background:new 0 0 512 512;" xml:space="preserve">
<polygon style="fill:#EDEBED;" points="404.645,0 377.118,16.516 346.839,0 316.559,16.516 286.28,0 256,16.516 225.72,0 
	195.441,16.516 165.161,0 134.882,16.516 107.355,0 107.355,512 134.882,495.484 165.161,512 195.441,495.484 225.72,512 
	256,495.484 286.28,512 316.559,495.484 346.839,512 377.118,495.484 404.645,512 "/>
<path style="fill:#DBD9DC;" d="M132.129,313.806V14.865L107.355,0v512l27.527-16.516L165.161,512l30.28-16.516L225.72,512
	L256,495.484L286.28,512l30.279-16.516L346.839,512l30.28-16.516L404.645,512v-33.032H297.29
	C206.074,478.968,132.129,405.023,132.129,313.806z"/>
<g>
	<path style="fill:#6F6571;" d="M350.968,90.839h-20.645c-4.565,0-8.258-3.694-8.258-8.258c0-4.565,3.694-8.258,8.258-8.258h20.645
		c4.565,0,8.258,3.694,8.258,8.258C359.226,87.145,355.532,90.839,350.968,90.839z"/>
	<path style="fill:#6F6571;" d="M350.968,132.129h-20.645c-4.565,0-8.258-3.694-8.258-8.258c0-4.565,3.694-8.258,8.258-8.258h20.645
		c4.565,0,8.258,3.694,8.258,8.258C359.226,128.435,355.532,132.129,350.968,132.129z"/>
	<path style="fill:#6F6571;" d="M350.968,173.419h-20.645c-4.565,0-8.258-3.694-8.258-8.258s3.694-8.258,8.258-8.258h20.645
		c4.565,0,8.258,3.694,8.258,8.258S355.532,173.419,350.968,173.419z"/>
	<path style="fill:#6F6571;" d="M350.968,214.71h-20.645c-4.565,0-8.258-3.694-8.258-8.258s3.694-8.258,8.258-8.258h20.645
		c4.565,0,8.258,3.694,8.258,8.258S355.532,214.71,350.968,214.71z"/>
	<path style="fill:#6F6571;" d="M350.968,256h-20.645c-4.565,0-8.258-3.694-8.258-8.258c0-4.565,3.694-8.258,8.258-8.258h20.645
		c4.565,0,8.258,3.694,8.258,8.258C359.226,252.306,355.532,256,350.968,256z"/>
	<path style="fill:#6F6571;" d="M350.968,297.29h-20.645c-4.565,0-8.258-3.694-8.258-8.258s3.694-8.258,8.258-8.258h20.645
		c4.565,0,8.258,3.694,8.258,8.258S355.532,297.29,350.968,297.29z"/>
	<path style="fill:#6F6571;" d="M350.968,338.581h-20.645c-4.565,0-8.258-3.694-8.258-8.258s3.694-8.258,8.258-8.258h20.645
		c4.565,0,8.258,3.694,8.258,8.258S355.532,338.581,350.968,338.581z"/>
</g>
<path style="fill:#AEA8AF;" d="M247.742,90.839h-90.839c-4.565,0-8.258-3.694-8.258-8.258c0-4.565,3.694-8.258,8.258-8.258h90.839
	c4.565,0,8.258,3.694,8.258,8.258S252.306,90.839,247.742,90.839z"/>
<path style="fill:#9C969E;" d="M276.782,132.129H156.903c-4.565,0-8.258-3.694-8.258-8.258c0-4.565,3.694-8.258,8.258-8.258h119.879
	c4.565,0,8.258,3.694,8.258,8.258C285.04,128.435,281.347,132.129,276.782,132.129z"/>
<path style="fill:#AEA8AF;" d="M222.968,173.419h-66.065c-4.565,0-8.258-3.694-8.258-8.258s3.694-8.258,8.258-8.258h66.065
	c4.565,0,8.258,3.694,8.258,8.258S227.532,173.419,222.968,173.419z"/>
<g>
	<path style="fill:#9C969E;" d="M247.742,214.71h-90.839c-4.565,0-8.258-3.694-8.258-8.258s3.694-8.258,8.258-8.258h90.839
		c4.565,0,8.258,3.694,8.258,8.258S252.306,214.71,247.742,214.71z"/>
	<path style="fill:#9C969E;" d="M280.774,256H156.903c-4.565,0-8.258-3.694-8.258-8.258c0-4.565,3.694-8.258,8.258-8.258h123.871
		c4.565,0,8.258,3.694,8.258,8.258C289.032,252.306,285.339,256,280.774,256z"/>
</g>
<g>
	<path style="fill:#AEA8AF;" d="M222.968,297.29h-66.065c-4.565,0-8.258-3.694-8.258-8.258s3.694-8.258,8.258-8.258h66.065
		c4.565,0,8.258,3.694,8.258,8.258S227.532,297.29,222.968,297.29z"/>
	<path style="fill:#AEA8AF;" d="M247.742,338.581h-90.839c-4.565,0-8.258-3.694-8.258-8.258s3.694-8.258,8.258-8.258h90.839
		c4.565,0,8.258,3.694,8.258,8.258S252.306,338.581,247.742,338.581z"/>
</g>
<path style="fill:#6F6571;" d="M313.806,396.387H198.194c-4.565,0-8.258-3.694-8.258-8.258s3.694-8.258,8.258-8.258h115.613
	c4.565,0,8.258,3.694,8.258,8.258S318.371,396.387,313.806,396.387z"/>
<path style="fill:#9C969E;" d="M289.032,437.677h-66.065c-4.565,0-8.258-3.694-8.258-8.258s3.694-8.258,8.258-8.258h66.065
	c4.565,0,8.258,3.694,8.258,8.258S293.597,437.677,289.032,437.677z"/>
<g>
</g>
<g>
</g>
<g>
</g>
<g>
</g>
<g>
</g>
<g>
</g>
<g>
</g>
<g>
</g>
<g>
</g>
<g>
</g>
<g>
</g>
<g>
</g>
<g>
</g>
<g>
</g>
<g>
</g>
</svg>
