<svg id="Capa_1" enable-background="new 0 0 512 512" height="512" viewBox="0 0 512 512" width="512" xmlns="http://www.w3.org/2000/svg"><g><g><g><circle cx="256" cy="256" fill="#eaf2ff" r="256"/></g><g><path d="m424.083 256c0-105.375-74.285-193.379-173.339-214.555-116.103 2.791-209.365 97.78-209.365 214.555s93.262 211.764 209.366 214.555c99.054-21.177 173.338-109.18 173.338-214.555z" fill="#FFE3E2"/><path d="m256 41.379c-9.605 0-19.059.641-28.33 1.864 105.14 13.866 186.291 103.83 186.291 212.757s-81.151 198.891-186.291 212.758c9.271 1.223 18.725 1.863 28.33 1.863 118.532 0 214.621-96.089 214.621-214.621s-96.089-214.621-214.621-214.621z" fill="#FFD3D1"/><g><g><g><g><g><g><g><g><g><g><path d="m291.18 309.094v-50.548h-70.36v50.548c0 8.6-5.963 16.006-14.287 17.92 0 0 1.867 73.899 49.466 73.899s52.478-73.29 52.478-73.29l-2.372-.456c-8.664-1.668-14.925-9.25-14.925-18.073z" fill="#ffcbbe"/><path d="m391.26 371.474c-15.741-20.507-38.72-35.372-65.646-40.554l-17.136-3.298-1.74 2.112c-25.986 31.538-74.668 30.825-99.471-1.651-.161-.211-.297-.393-.407-.543-.315-.122-.65-.253-.965-.375l-19.509 3.755c-40.524 7.799-72.128 37.514-83.533 75.419 37.804 38.505 90.006 62.823 147.895 64.214 59.221-12.661 109.582-49.208 140.512-99.079z" fill="#3C35B4"/><path d="m409.147 406.34c-4.794-15.931-13.166-30.406-24.258-42.424-32.685 56.071-90.055 95.985-157.218 104.842.007.001.014.004.021.005 9.264 1.221 18.711 1.859 28.309 1.859 59.979-.001 114.202-24.616 153.146-64.282z" fill="#9d66d5"/></g></g></g></g></g></g><path d="m330.544 195.069h-6.988v-4.407l-.18-7.362c-.162-38.875-32.242-65.808-67.81-66.058-35.413.551-67.42 27.612-67.257 66.634l.304 6.785v4.407h-7.157c-5.605 0-10.15 4.544-10.15 10.15v21.903c0 8.858 7.181 16.039 16.039 16.039h1.342c.818 17.377 8.231 33.249 21.375 44.608 10.881 9.403 26.156 17.585 46.288 17.727 20.131-.313 35.336-8.626 46.139-18.121 13.049-11.47 20.332-26.861 21.005-44.213h1.161c8.858 0 16.039-7.181 16.039-16.039v-21.903c0-5.606-4.544-10.15-10.15-10.15z" fill="#ffddce"/><path d="m319.01 133.436h-.694c-3.841 0-6.956-3.114-6.956-6.956 0-11.374-9.221-20.595-20.595-20.595h-59.395c-32.571 0-58.975 26.404-58.975 58.975v28.752c0 5.127 3.245 9.693 8.087 11.379l13.011 4.53c4.548 1.583 9.297-1.798 9.289-6.613l-.028-24.614c-.05-11.971 9.496-21.716 21.323-21.767l.258-.001c3.62-.015 7.2.547 10.62 1.646 6.059 1.947 12.338 3.127 18.702 3.1h4.689c6.364.027 12.643-1.153 18.702-3.1 3.42-1.099 7-1.661 10.62-1.646l.258.001c11.826.051 21.373 9.796 21.323 21.767l-.024 24.616c-.007 4.815 4.743 8.195 9.29 6.611l13.007-4.53c4.842-1.686 8.086-6.252 8.086-11.379v-39.582c-.003-11.373-9.223-20.594-20.598-20.594z" fill="#e7a561"/></g></g></g></g></g></g></g></svg>